{
  "accessors": [
    {
      "bufferView": 2,
      "componentType": 5126,
      "count": 12186,
      "max": [
        -0.7397384643554688,
        8.367984771728516,
        11.756805419921875
      ],
      "min": [
        -16.91995620727539,
        -0.12913894653320313,
        0.28606414794921875
      ],
      "type": "VEC3"
    },
    {
      "bufferView": 2,
      "byteOffset": 146232,
      "componentType": 5126,
      "count": 12186,
      "type": "VEC3"
    },
    {
      "bufferView": 3,
      "componentType": 5126,
      "count": 12186,
      "type": "VEC4"
    },
    {
      "bufferView": 1,
      "componentType": 5126,
      "count": 12186,
      "type": "VEC2"
    },
    {
      "bufferView": 0,
      "componentType": 5125,
      "count": 66528,
      "type": "SCALAR"
    },
    {
      "bufferView": 2,
      "byteOffset": 292464,
      "componentType": 5126,
      "count": 12186,
      "max": [
        3.9497146606445313,
        14.859975814819336,
        4.7848663330078125
      ],
      "min": [
        -4.540653228759766,
        0.044994354248046875,
        -4.570220947265625
      ],
      "type": "VEC3"
    },
    {
      "bufferView": 2,
      "byteOffset": 438696,
      "componentType": 5126,
      "count": 12186,
      "type": "VEC3"
    },
    {
      "bufferView": 3,
      "byteOffset": 194976,
      "componentType": 5126,
      "count": 12186,
      "type": "VEC4"
    },
    {
      "bufferView": 1,
      "byteOffset": 97488,
      "componentType": 5126,
      "count": 12186,
      "type": "VEC2"
    },
    {
      "bufferView": 0,
      "byteOffset": 266112,
      "componentType": 5125,
      "count": 66528,
      "type": "SCALAR"
    }
  ],
  "asset": {
    "generator": "fab-model-conversion",
    "version": "2.0"
  },
  "bufferViews": [
    {
      "buffer": 0,
      "byteLength": 532224,
      "target": 34963
    },
    {
      "buffer": 0,
      "byteLength": 194976,
      "byteOffset": 532224,
      "byteStride": 8,
      "target": 34962
    },
    {
      "buffer": 0,
      "byteLength": 584928,
      "byteOffset": 727200,
      "byteStride": 12,
      "target": 34962
    },
    {
      "buffer": 0,
      "byteLength": 389952,
      "byteOffset": 1312128,
      "byteStride": 16,
      "target": 34962
    }
  ],
  "buffers": [
    {
      "byteLength": 1702080,
      "uri": "scene.bin"
    }
  ],
  "images": [
    {
      "uri": "textures/M_Barrel_BaseColor.jpeg"
    },
    {
      "uri": "textures/M_Barrel_ORM.jpeg"
    },
    {
      "uri": "textures/M_Barrel_Normal.jpeg"
    }
  ],
  "materials": [
    {
      "doubleSided": true,
      "name": "M_Barrel",
      "normalTexture": {
        "index": 2
      },
      "pbrMetallicRoughness": {
        "baseColorTexture": {
          "index": 0
        },
        "metallicRoughnessTexture": {
          "index": 1
        }
      }
    }
  ],
  "meshes": [
    {
      "name": "Plastic_BarrelB_M_Barrel_0",
      "primitives": [
        {
          "attributes": {
            "NORMAL": 1,
            "POSITION": 0,
            "TANGENT": 2,
            "TEXCOORD_0": 3
          },
          "indices": 4,
          "material": 0,
          "mode": 4
        }
      ]
    },
    {
      "name": "Plastic_BarrelA_M_Barrel_0",
      "primitives": [
        {
          "attributes": {
            "NORMAL": 6,
            "POSITION": 5,
            "TANGENT": 7,
            "TEXCOORD_0": 8
          },
          "indices": 9,
          "material": 0,
          "mode": 4
        }
      ]
    }
  ],
  "nodes": [
    {
      "children": [
        1
      ],
      "matrix": [
        1.0,
        0.0,
        0.0,
        0.0,
        0.0,
        2.220446049250313e-16,
        -1.0,
        0.0,
        0.0,
        1.0,
        2.220446049250313e-16,
        0.0,
        0.0,
        0.0,
        0.0,
        1.0
      ],
      "name": "FAB converted model"
    },
    {
      "children": [
        2
      ],
      "matrix": [
        0.009999999776482582,
        0.0,
        0.0,
        0.0,
        0.0,
        0.0,
        0.009999999776482582,
        0.0,
        0.0,
        -0.009999999776482582,
        0.0,
        0.0,
        0.0,
        0.0,
        0.0,
        1.0
      ],
      "name": "Plastic_Barrel.fbx"
    },
    {
      "children": [
        3
      ],
      "name": "RootNode"
    },
    {
      "children": [
        4,
        6
      ],
      "name": "Plastic_Barrel"
    },
    {
      "children": [
        5
      ],
      "matrix": [
        1.0,
        0.0,
        0.0,
        0.0,
        0.0,
        1.0,
        0.0,
        0.0,
        0.0,
        0.0,
        1.0,
        0.0,
        3.293942928314209,
        0.0,
        0.0,
        1.0
      ],
      "name": "Plastic_BarrelB"
    },
    {
      "mesh": 0,
      "name": "Plastic_BarrelB_M_Barrel_0"
    },
    {
      "children": [
        7
      ],
      "matrix": [
        1.0,
        0.0,
        0.0,
        0.0,
        0.0,
        1.0,
        0.0,
        0.0,
        0.0,
        0.0,
        1.0,
        0.0,
        3.293942928314209,
        0.0,
        0.0,
        1.0
      ],
      "name": "Plastic_BarrelA"
    },
    {
      "mesh": 1,
      "name": "Plastic_BarrelA_M_Barrel_0"
    }
  ],
  "samplers": [
    {
      "magFilter": 9729,
      "minFilter": 9987,
      "wrapS": 10497,
      "wrapT": 10497
    }
  ],
  "scene": 0,
  "scenes": [
    {
      "name": "FAB converted",
      "nodes": [
        0
      ]
    }
  ],
  "textures": [
    {
      "sampler": 0,
      "source": 0
    },
    {
      "sampler": 0,
      "source": 1
    },
    {
      "sampler": 0,
      "source": 2
    }
  ]
}
