{
  "accessors": [
    {
      "bufferView": 2,
      "componentType": 5126,
      "count": 3114,
      "max": [
        253.71133422851563,
        41.47251892089844,
        150.9290771484375
      ],
      "min": [
        -189.69464111328125,
        -41.47248840332031,
        0.8806188106536865
      ],
      "type": "VEC3"
    },
    {
      "bufferView": 2,
      "byteOffset": 37368,
      "componentType": 5126,
      "count": 3114,
      "type": "VEC3"
    },
    {
      "bufferView": 3,
      "componentType": 5126,
      "count": 3114,
      "type": "VEC4"
    },
    {
      "bufferView": 1,
      "componentType": 5126,
      "count": 3114,
      "type": "VEC2"
    },
    {
      "bufferView": 0,
      "componentType": 5125,
      "count": 7182,
      "type": "SCALAR"
    }
  ],
  "asset": {
    "generator": "fab-model-conversion",
    "version": "2.0"
  },
  "bufferViews": [
    {
      "buffer": 0,
      "byteLength": 28728,
      "target": 34963
    },
    {
      "buffer": 0,
      "byteLength": 24912,
      "byteOffset": 28728,
      "byteStride": 8,
      "target": 34962
    },
    {
      "buffer": 0,
      "byteLength": 74736,
      "byteOffset": 53640,
      "byteStride": 12,
      "target": 34962
    },
    {
      "buffer": 0,
      "byteLength": 49824,
      "byteOffset": 128376,
      "byteStride": 16,
      "target": 34962
    }
  ],
  "buffers": [
    {
      "byteLength": 178200,
      "uri": "scene.bin"
    }
  ],
  "images": [
    {
      "uri": "textures/Thuyen_Mtl_baseColor.jpeg"
    },
    {
      "uri": "textures/Thuyen_Mtl_metallicRoughness.jpeg"
    },
    {
      "uri": "textures/Thuyen_Mtl_normal.jpeg"
    }
  ],
  "materials": [
    {
      "doubleSided": true,
      "name": "Thuyen_Mtl",
      "normalTexture": {
        "index": 2
      },
      "occlusionTexture": {
        "index": 1
      },
      "pbrMetallicRoughness": {
        "baseColorTexture": {
          "index": 0
        },
        "metallicRoughnessTexture": {
          "index": 1
        }
      }
    }
  ],
  "meshes": [
    {
      "name": "Thuyen_001_Thuyen_Mtl_0",
      "primitives": [
        {
          "attributes": {
            "NORMAL": 1,
            "POSITION": 0,
            "TANGENT": 2,
            "TEXCOORD_0": 3
          },
          "indices": 4,
          "material": 0,
          "mode": 4
        }
      ]
    }
  ],
  "nodes": [
    {
      "children": [
        1
      ],
      "matrix": [
        1.0,
        0.0,
        0.0,
        0.0,
        0.0,
        2.220446049250313e-16,
        -1.0,
        0.0,
        0.0,
        1.0,
        2.220446049250313e-16,
        0.0,
        0.0,
        0.0,
        0.0,
        1.0
      ],
      "name": "Sketchfab_model"
    },
    {
      "children": [
        2
      ],
      "matrix": [
        0.009999999776482582,
        0.0,
        0.0,
        0.0,
        0.0,
        0.0,
        0.009999999776482582,
        0.0,
        0.0,
        -0.009999999776482582,
        0.0,
        0.0,
        0.0,
        0.0,
        0.0,
        1.0
      ],
      "name": "e7dd8359af4c49cea9cc02704a78cb04.fbx"
    },
    {
      "children": [
        3
      ],
      "name": "RootNode"
    },
    {
      "children": [
        4
      ],
      "matrix": [
        2.799999952316284,
        0.0,
        0.0,
        0.0,
        0.0,
        7.771561172376096e-16,
        -3.5,
        0.0,
        0.0,
        3.5,
        7.771561172376096e-16,
        0.0,
        0.0,
        0.0,
        0.0,
        1.0
      ],
      "name": "Thuyen_001"
    },
    {
      "children": [
        5
      ],
      "matrix": [
        1.0,
        0.0,
        -0.0,
        0.0,
        0.0,
        1.0,
        0.0,
        0.0,
        0.0,
        0.0,
        1.0,
        0.0,
        -32.008373260498,
        -1.95756692846771e-05,
        -20.7812042236328,
        1.0
      ],
      "name": "Object_4"
    },
    {
      "mesh": 0,
      "name": "Thuyen_001_Thuyen_Mtl_0"
    }
  ],
  "samplers": [
    {
      "magFilter": 9729,
      "minFilter": 9987,
      "wrapS": 10497,
      "wrapT": 10497
    }
  ],
  "scene": 0,
  "scenes": [
    {
      "name": "Sketchfab_Scene",
      "nodes": [
        0
      ]
    }
  ],
  "textures": [
    {
      "sampler": 0,
      "source": 0
    },
    {
      "sampler": 0,
      "source": 1
    },
    {
      "sampler": 0,
      "source": 2
    }
  ]
}
