{
  "accessors": [
    {
      "bufferView": 2,
      "componentType": 5126,
      "count": 1503,
      "max": [
        17.694787979125977,
        68.6053466796875,
        17.567888259887695
      ],
      "min": [
        -17.652631759643555,
        -0.14035427570343018,
        -17.602365493774414
      ],
      "type": "VEC3"
    },
    {
      "bufferView": 2,
      "byteOffset": 18036,
      "componentType": 5126,
      "count": 1503,
      "type": "VEC3"
    },
    {
      "bufferView": 3,
      "componentType": 5126,
      "count": 1503,
      "type": "VEC4"
    },
    {
      "bufferView": 1,
      "componentType": 5126,
      "count": 1503,
      "type": "VEC2"
    },
    {
      "bufferView": 1,
      "byteOffset": 12024,
      "componentType": 5126,
      "count": 1503,
      "type": "VEC2"
    },
    {
      "bufferView": 0,
      "componentType": 5125,
      "count": 1896,
      "type": "SCALAR"
    }
  ],
  "asset": {
    "generator": "fab-model-conversion",
    "version": "2.0"
  },
  "bufferViews": [
    {
      "buffer": 0,
      "byteLength": 7584,
      "target": 34963
    },
    {
      "buffer": 0,
      "byteLength": 24048,
      "byteOffset": 7584,
      "byteStride": 8,
      "target": 34962
    },
    {
      "buffer": 0,
      "byteLength": 36072,
      "byteOffset": 31632,
      "byteStride": 12,
      "target": 34962
    },
    {
      "buffer": 0,
      "byteLength": 24048,
      "byteOffset": 67704,
      "byteStride": 16,
      "target": 34962
    }
  ],
  "buffers": [
    {
      "byteLength": 91752,
      "uri": "Traffic_Cone_uhrhabqfa_Low.bin"
    }
  ],
  "images": [
    {
      "uri": "textures/Traffic_Cone_uhrhabqfa_Low_1K_albedo.jpeg"
    },
    {
      "uri": "textures/Traffic_Cone_uhrhabqfa_Low_1K_orm.jpeg"
    },
    {
      "uri": "textures/Traffic_Cone_uhrhabqfa_Low_1K_normal.jpeg"
    }
  ],
  "materials": [
    {
      "doubleSided": true,
      "name": "Traffic_Cone_uhrhabqfa_Low",
      "normalTexture": {
        "index": 2
      },
      "occlusionTexture": {
        "index": 1
      },
      "pbrMetallicRoughness": {
        "baseColorTexture": {
          "index": 0
        },
        "metallicFactor": 0.0,
        "metallicRoughnessTexture": {
          "index": 1
        }
      }
    }
  ],
  "meshes": [
    {
      "name": "uhrhabqfa_LOD0_TIER3_000_MatID_1_0",
      "primitives": [
        {
          "attributes": {
            "NORMAL": 1,
            "POSITION": 0,
            "TANGENT": 2,
            "TEXCOORD_0": 3,
            "TEXCOORD_1": 4
          },
          "indices": 5,
          "material": 0,
          "mode": 4
        }
      ]
    }
  ],
  "nodes": [
    {
      "children": [
        1
      ],
      "matrix": [
        1.0,
        0.0,
        0.0,
        0.0,
        0.0,
        2.220446049250313e-16,
        -1.0,
        0.0,
        0.0,
        1.0,
        2.220446049250313e-16,
        0.0,
        0.0,
        0.0,
        0.0,
        1.0
      ],
      "name": "Sketchfab_model"
    },
    {
      "children": [
        2
      ],
      "matrix": [
        0.009999999776482582,
        0.0,
        0.0,
        0.0,
        0.0,
        0.0,
        0.009999999776482582,
        0.0,
        0.0,
        -0.009999999776482582,
        0.0,
        0.0,
        0.0,
        0.0,
        0.0,
        1.0
      ],
      "name": "Traffic_Cone_uhrhabqfa_Low.fbx"
    },
    {
      "children": [
        3
      ],
      "name": "RootNode"
    },
    {
      "children": [
        4
      ],
      "name": "uhrhabqfa_LOD0_TIER3_000"
    },
    {
      "mesh": 0,
      "name": "uhrhabqfa_LOD0_TIER3_000_MatID_1_0"
    }
  ],
  "samplers": [
    {
      "magFilter": 9729,
      "minFilter": 9987,
      "wrapS": 10497,
      "wrapT": 10497
    }
  ],
  "scene": 0,
  "scenes": [
    {
      "name": "Sketchfab_Scene",
      "nodes": [
        0
      ]
    }
  ],
  "textures": [
    {
      "sampler": 0,
      "source": 0
    },
    {
      "sampler": 0,
      "source": 1
    },
    {
      "sampler": 0,
      "source": 2
    }
  ]
}
