<?xml version="1.0" encoding="UTF-8"?>
<svg id="Layer_1" xmlns="http://www.w3.org/2000/svg" version="1.1" viewBox="50 290 490 86">
  <!-- Generator: Adobe Illustrator 29.8.5, SVG Export Plug-In . SVG Version: 2.1.1 Build 2)  -->
  <defs>
    <style>
      .st0 {
        fill: #fff;
      }

      .st1 {
        fill: #d1a23a;
      }
    </style>
  </defs>
  <path class="st0" d="M260.5,314.91v47.47c0,.95.21,1.67.64,2.16.43.49,1.19.89,2.29,1.19v1.47h-19.54v-1.47c1.1-.31,1.86-.7,2.29-1.19.43-.49.64-1.21.64-2.16v-47.47h-19.45c-.92,0-1.62.21-2.11.63-.49.42-.89,1.19-1.19,2.31h-1.47v-16.19h1.47c.34,1.11.74,1.88,1.22,2.3.47.42,1.17.63,2.09.63h52.51c.95,0,1.67-.21,2.16-.63.49-.42.89-1.19,1.19-2.3h1.47v16.19h-1.47c-.31-1.12-.7-1.89-1.19-2.31-.49-.42-1.21-.63-2.16-.63h-19.4Z"/>
  <path class="st1" d="M322.27,300.83c-19.44,0-35.2,15.76-35.2,35.2s15.76,35.2,35.2,35.2,35.2-15.76,35.2-35.2-15.76-35.2-35.2-35.2ZM319.53,360.21c-1.91,0-3.45-1.54-3.45-3.45s1.54-3.45,3.45-3.45,3.45,1.54,3.45,3.45-1.54,3.45-3.45,3.45ZM322.27,330c-1.23,0-2.23-1-2.23-2.23s1-2.23,2.23-2.23,2.23,1,2.23,2.23-1,2.23-2.23,2.23ZM350.77,334.23c-1.23,0-2.23-1-2.23-2.23s1-2.23,2.23-2.23,2.23,1,2.23,2.23-1,2.23-2.23,2.23Z"/>
  <path class="st0" d="M358.25,317.59s.05.04.09.06c-5.66-10.95-16.32-18.9-28.97-20.81-1.49,2.51-1.78,5.19-1.15,8.02.31,1.39.63,2.79.81,4.21.18,1.39.14,2.77-.45,4.05-.77,1.65-1.48,3.33-2.54,4.84-1.09,1.56-1.32,3.31-.97,5.16.27,1.43.6,2.85.74,4.3.16,1.6.3,3.21.32,4.83.03,2.18-.37,4.26-1.28,6.25-.46,1.01-.94,2.01-1.37,3.03-1.07,2.55-1.86,5.18-1.94,8.24.02.32.06.9.12,1.48.03.36.19.63.5.85.5.34,1,.71,1.44,1.11.25.23.41.25.67.06,2.18-1.57,4.34-3.15,5.41-5.76.11-.27.26-.52.39-.78.64-1.23,1.56-2.19,2.73-2.92.74-.46,1.52-.87,2.29-1.26,1.66-.84,3.08-1.95,4.21-3.44.29-.38.61-.73.89-1.12,1.42-1.91,3.21-3.37,5.36-4.37.43-.2.47-.41.42-.85-.24-2.16.97-4.19,2.95-5.07.74-.33,1.52-.46,2.32-.4.27.02.5.03.64-.3.42-1.01,1.12-1.86,1.68-2.78,1.42-2.32,3-4.52,4.68-6.64Z"/>
  <path class="st0" d="M359.46,320.12c-2.48,2.83-5.13,5.96-6.11,7.64-.2.34-.25.54.09.85,1.01.9,1.55,2.06,1.6,3.43.02.62.04.63.63.52,2.4-.46,4.45-.92,6.35-2.2,0,.06.19-.27.28-.23-.49-3.48-1.44-6.8-2.77-9.93-.03-.03-.05-.05-.08-.08Z"/>
  <path class="st0" d="M362.6,338.19c.06-.85.1-1.71.1-2.57,0-.66-.02-1.31-.05-1.96-2.19.45-4.04.82-4.63.98-.33.09-.37.24-.26.51.25.62.6,1.18,1.08,1.65.38.38,1.88.98,3.69,1.61.02-.07.05-.14.07-.21Z"/>
  <path class="st0" d="M362.33,339.72s0,0,0,0c-2.02-.7-3.78-1.8-5.09-3.65-.17-.24-.38-.44-.57-.66-.54-.58-1.25-.58-1.97-.65-.58-.06-.84.3-1.2.61-1.51,1.35-3.26,1.76-5.15,1-.71-.28-1.3-.28-1.93.05-.09.05-.19.08-.29.13-2.23.99-4.24,2.27-5.78,4.21-.61.77-1.1,1.6-1.36,2.55.35.24.74.2,1.09.31,3.06.88,5.46,2.6,6.95,5.48.63,1.22,1.21,2.49,2.1,3.54.93,1.09,1.67,2.31,2.55,3.43.91,1.16,1.89,2.24,2.95,3.22-.01.02,0,.07.01.11,4.14-5.41,6.9-11.92,7.76-19.02-.04-.22-.06-.45-.06-.67Z"/>
  <path class="st0" d="M352.38,359.39c-2.35-2.55-4.18-5.46-5.96-8.41-.57-.95-1.08-1.94-1.74-2.84-.92-1.25-2.07-2.19-3.57-2.65-1.23-.38-2.5-.45-3.77-.37-1.44.09-2.74.56-3.89,1.43-.83.63-1.52,1.4-2.12,2.24-.74,1.03-1.45,2.08-2.19,3.12-1,1.42-2.15,2.7-3.63,3.62-.45.28-.57.57-.55,1.09.06,2.54-1.61,4.69-4.06,5.29-.62.15-1.26.19-1.89.09,0,0-.49.44-.63,2.51-.07,1.02.61,1.91,1.14,2.77.54.88,1.15,1.72,1.81,2.51,1.25,1.52,2.05,3.22,2.56,5.02,11.97-.12,22.65-5.6,29.76-14.16-.69-.68-1.17-1.17-1.27-1.27Z"/>
  <path class="st0" d="M317.78,368.71c-.63-1.17-.97-2.4-.91-3.73.04-.99.27-1.94.65-2.85.13-.31.09-.46-.23-.6-.63-.29-1.19-.71-1.62-1.25-.27-.35-.52-.33-.88-.19-1.16.44-2.34.82-3.56,1.09-1.42.31-2.86.6-4.32.48-2.39-.19-4.42-1.18-6.12-2.86-.47-.47-.94-.94-1.49-1.31-.41-.28-.82-.58-1.46-.52.51,1.05.87,2.04,1.08,3.08.39,1.93.39,3.87.31,5.81,6.18,4.93,13.89,8.04,22.3,8.49-.52-.93-1.14-1.8-1.77-2.66-.7-.96-1.41-1.92-1.97-2.98Z"/>
  <path class="st0" d="M306.11,303.54c2.66,1.64,4.17,4.06,4.87,7.05.37,1.6.52,3.24.78,4.86.33,2.09,1.17,3.89,2.75,5.32,1.44,1.31,3.06,2.35,4.76,3.29.52.29,1.04.51,1.62.11.14-.1.36-.08.53-.15.33-.14.81.18.99-.23.14-.32.1-.73.13-1.1.02-.21.03-.42.02-.64-.1-1.69.38-3.24,1.09-4.74.51-1.08.99-2.17,1.4-3.28.68-1.85.86-3.75.58-5.7-.26-1.81-.72-3.58-.93-5.4-.25-2.17-.01-4.23,1.26-6.08.08-.12.16-.23.23-.35-.9-.06-1.81-.1-2.72-.1-7.27,0-14.07,1.99-19.91,5.43.23.19.48.38.75.55.6.39,1.19.79,1.8,1.17Z"/>
  <path class="st0" d="M288.35,353.06c1.84,3.69,4.24,7.05,7.09,9.97-.02-2.97-1.39-6.42-7.09-9.97Z"/>
  <path class="st0" d="M297.99,354.7c1.16.36.95.36,1.83.95.48.33.91.72,1.34,1.11.73.66,1.48,1.28,2.33,1.78,1.36.81,2.84,1.13,4.41.99,2.13-.19,4.13-.87,6.12-1.57.33-.12.4-.28.36-.65-.35-3.04,1.98-5.68,4.84-5.86.54-.03.57-.05.52-.6-.15-1.79.07-3.54.45-5.28.49-2.27,1.04-4.53,2.01-6.67.58-1.27.76-2.64.76-3.99-.04-.91-.11-1.78-.29-2.63-.08-.37-.21-.56-.66-.57-1.14-.02-2.12-.47-2.83-1.37-.26-.33-.48-.31-.8-.16-.6.27-1.22.49-1.9.48-1.94-.02-3.85-.2-5.76-.57-2.95-.58-5.72-1.68-8.48-2.84-.22-.09-.41-.24-.6-.38-.89-.65-1.88-1.06-2.95-1.3-1.65-.38-3.34-.56-5.02-.77-2.55-.32-4.95-1.02-7.14-2.35-1.47,4.11-2.27,8.54-2.27,13.16,0,3.97.59,7.8,1.69,11.41.84.97,1.82,1.83,2.99,2.53,1.18.71,2.36,1.41,3.54,2.13l5.51,3.03Z"/>
  <path class="st0" d="M292.51,321.77c1.65.38,3.34.55,5.02.76,1.92.23,3.65.85,5.05,2.23.21.2.44.38.67.56.44.35.92.63,1.43.84,2.28.93,4.63,1.47,7.1,1.51,2.1.04,4.16-.18,6.39-.78-.93-.62-1.69-1.13-2.46-1.64-1.17-.78-2.31-1.6-3.33-2.57-1.52-1.45-2.5-3.19-2.89-5.27-.29-1.54-.38-3.1-.59-4.65-.33-2.47-1.39-4.54-3.36-6.1-.58-.46-1.19-.89-1.79-1.32-.75-.54-1.53-1.05-2.24-1.65-.13-.11-.23-.23-.35-.34-5.9,4.09-10.62,9.75-13.56,16.38.07.05.14.09.22.14,1.46.89,3.02,1.51,4.69,1.89Z"/>
  <path class="st0" d="M100.26,334.4c7.03,2.66,10.55,7.58,10.55,14.77,0,5.72-2.05,10.2-6.15,13.44-2.08,1.62-4.49,2.79-7.22,3.51-2.74.72-6.12,1.08-10.16,1.08h-42.79v-1.47c1.1-.31,1.86-.7,2.29-1.19.43-.49.64-1.21.64-2.16v-52.97c0-.95-.21-1.67-.64-2.16-.43-.49-1.19-.89-2.29-1.19v-1.47h42.38c4.07,0,7.34.31,9.81.92,2.48.61,4.65,1.65,6.51,3.12,3.7,2.91,5.55,7.09,5.55,12.57,0,6.12-2.83,10.52-8.48,13.21ZM61.09,329.5h23.99c3.64,0,6.18-.53,7.61-1.61,1.62-1.22,2.43-3.12,2.43-5.69s-.76-4.5-2.29-5.62c-1.53-1.12-4.11-1.67-7.75-1.67h-23.99v14.58ZM61.09,356.88h23.21c4.31,0,7.41-.6,9.31-1.79,2.17-1.38,3.26-3.62,3.26-6.74s-1.09-5.34-3.26-6.74c-1.87-1.19-4.97-1.79-9.31-1.79h-23.21v17.06Z"/>
  <path class="st0" d="M123.14,362.38v-53.02c0-.92-.21-1.62-.64-2.11-.43-.49-1.19-.89-2.29-1.19v-1.47h19.54v1.47c-1.1.27-1.87.67-2.29,1.17-.43.5-.64,1.22-.64,2.13v53.02c0,.95.22,1.67.67,2.18.44.5,1.2.89,2.27,1.17v1.47h-19.54v-1.47c1.1-.31,1.86-.7,2.29-1.19.43-.49.64-1.21.64-2.16Z"/>
  <path class="st0" d="M214.68,309.41v35.08c0,6.63-1.22,11.6-3.67,14.91-4.4,5.93-13.5,8.9-27.29,8.9-9.97,0-17.6-1.61-22.88-4.82-3.09-1.86-5.23-4.4-6.42-7.61-1.16-3.18-1.74-6.97-1.74-11.37v-35.08c0-.95-.21-1.67-.64-2.16-.43-.49-1.19-.89-2.29-1.19v-1.47h19.54v1.47c-1.08.27-1.84.67-2.28,1.17-.44.5-.65,1.23-.65,2.18v31.23c0,3.61.2,6.28.6,8,.4,1.73,1.15,3.17,2.25,4.33,2.93,3.12,7.95,4.68,15.04,4.68s12.15-1.56,15.09-4.68c1.07-1.16,1.8-2.61,2.2-4.33.4-1.73.6-4.39.6-8v-31.23c0-.95-.21-1.67-.64-2.16-.43-.49-1.19-.89-2.29-1.19v-1.47h18.44v1.47c-1.1.31-1.87.7-2.29,1.19-.43.49-.64,1.21-.64,2.16Z"/>
  <path class="st0" d="M387.26,341.79v20.64c0,.92.22,1.63.67,2.13.44.5,1.2.89,2.27,1.17v1.47h-19.54v-1.47c1.1-.31,1.86-.7,2.29-1.19.43-.49.64-1.19.64-2.11v-53.02c0-.95-.21-1.67-.64-2.16-.43-.49-1.19-.89-2.29-1.19v-1.47h39.07c4.56,0,8.17.31,10.85.92,2.67.61,5.04,1.67,7.09,3.16,2.11,1.56,3.76,3.61,4.95,6.15,1.19,2.63,1.79,5.41,1.79,8.35,0,4.22-1.13,7.92-3.39,11.1-1.96,2.72-4.55,4.66-7.77,5.8-3.23,1.15-7.73,1.72-13.51,1.72h-22.47ZM387.26,331.47h20.87c4.16,0,7.08-.44,8.76-1.33,1.07-.58,1.93-1.51,2.59-2.77.66-1.27.99-2.67.99-4.2s-.33-2.88-.99-4.15c-.66-1.27-1.52-2.19-2.59-2.77-1.65-.89-4.57-1.33-8.76-1.33h-20.87v16.56Z"/>
  <path class="st0" d="M445.46,362.38v-53.02c0-.92-.21-1.62-.64-2.11-.43-.49-1.19-.89-2.29-1.19v-1.47h19.54v1.47c-1.1.27-1.87.67-2.29,1.17-.43.5-.64,1.22-.64,2.13v53.02c0,.95.22,1.67.67,2.18.44.5,1.2.89,2.27,1.17v1.47h-19.54v-1.47c1.1-.31,1.86-.7,2.29-1.19.43-.49.64-1.21.64-2.16Z"/>
  <path class="st0" d="M533.97,345.69l8.71,13.05-1.19.83c-.86-.8-1.56-1.19-2.11-1.19s-2.09.73-4.63,2.21c-5.26,3.03-9.68,5.08-13.28,6.14-3.59,1.06-7.87,1.59-12.82,1.59-9.88,0-17.98-2.34-24.31-7.02-3.73-2.72-6.67-6.1-8.81-10.14-2.48-4.62-3.71-9.71-3.71-15.27,0-7.58,2.22-14.17,6.65-19.77,6.67-8.41,16.74-12.61,30.22-12.61,4.95,0,9.2.52,12.75,1.56,3.55,1.04,7.98,3.09,13.3,6.15,2.54,1.44,4.08,2.16,4.63,2.16s1.25-.4,2.11-1.19l1.19.83-8.71,13.07-1.24-.82c.06-.49.09-.9.09-1.23,0-.88-.38-1.71-1.15-2.49-.76-.78-2.13-1.71-4.08-2.81-5.41-3.05-11.14-4.57-17.2-4.57-7.15,0-12.86,1.79-17.11,5.36-5.01,4.18-7.52,9.65-7.52,16.4s2.51,12.22,7.52,16.4c4.25,3.57,9.95,5.36,17.11,5.36,6.05,0,11.79-1.53,17.2-4.59,1.96-1.1,3.32-2.04,4.08-2.82.76-.78,1.15-1.61,1.15-2.5,0-.34-.03-.73-.09-1.19l1.24-.87Z"/>
</svg>