<?xml version="1.0" encoding="UTF-8"?>
<svg id="Layer_1" xmlns="http://www.w3.org/2000/svg" version="1.1" viewBox="5 105 575 102">
  <!-- Generator: Adobe Illustrator 29.8.5, SVG Export Plug-In . SVG Version: 2.1.1 Build 2)  -->
  <defs>
    <style>
      .st0 {
        fill: #fff;
      }

      .st1 {
        fill: #c19832;
      }
    </style>
  </defs>
  <path class="st0" d="M29.01,167.19c.06-.06.13-.12.19-.19-.06.06-.13.12-.19.19Z"/>
  <path class="st0" d="M28.63,167.56c.06-.06.13-.12.19-.19-.06.06-.13.12-.19.19Z"/>
  <path class="st0" d="M13.6,122.59h22.26s0,1.85,0,1.85h-3.14c-.06,0-1.04.43-1.18.52-.92.56-1.29,1.57-1.56,2.55l-.02,38.02c-1.01-.04-1.44-.12-2.28.37h16.74c-.33-.26-.08-1.48,0-1.48h5.42c.54.28.13,1.15.31,1.45.05.07.66.17.93.48.88,1.03.03,2.4-1.24,2.51l-21.49-.02c-.85-.07-1.38-1.15-1.22-1.89.01-.07.49-1.03.54-1.06-.15.09-.35.03-.58.26-1.07,1.1.32,2.59.2,2.7h-13.7s0-1.85,0-1.85c3.01.12,5.63.11,5.91-3.42l-.02-36.27c-.56-2.95-3.32-3.07-5.88-2.89v-1.85ZM45.85,164.97c.91.1,2.1,0,3.04,0,.03,0,.56-.18.47-.37-1.48.06-2.89.11-4.37,0-.05.19.77.36.86.37ZM29.39,166.82c-.06-.06.17-.35-.28-.39-.76-.07-1.25.48-1.06,1.2.05.2.37.1.39.12.06.07.01.47.3.55.75.21,1.22-.67,1.03-1.35-.06-.21-.36-.1-.38-.12Z"/>
  <path class="st0" d="M28.44,167.75c-.03-.21.18-.17.19-.19-.01.01.02.22-.19.19Z"/>
  <path class="st0" d="M29.2,167.01s-.02-.22.19-.19c.03.21-.18.17-.19.19Z"/>
  <path class="st0" d="M28.82,167.38c.06-.06.13-.12.19-.19-.06.06-.13.12-.19.19Z"/>
  <path class="st0" d="M97.13,122.03v1.85h-3.71c-.49,0-1.97,1.22-2.27,1.67-.41.61-.62,1.75-.68,2.48-.31,3.9.25,8.19,0,12.13,2.12-.1,2.03.61,1.9,2.41h15.22c-.17-1.8-.02-3.03,2.09-2.04v-13.6c0-1.54-2.1-2.87-3.54-3.03-1.89-.22-3.57.85-3.12-1.87h24.54c-.06.43.17,1.53-.18,1.77s-2.74,0-3.49.13c-2.19.36-2.87,2.42-3,4.3-.78,10.9.58,22.68.03,33.67.39,3.95,3.2,4.04,6.64,4l-.08,1.68-24.15.15c-.55-.17-.24-1.35-.31-1.83,1.96.03,4.75.1,5.98-1.68.18-.27.68-1.32.68-1.56v-14.72c-.53.33-1.22.57-1.79.17-.53-.37-.23-1.28-.3-1.28h-15.22c-.06,0,.1.87-.03,1.08-.15.24-1.51.5-1.87.4.27,4.3-.35,8.99,0,13.24s2.92,4.39,6.67,4.34v1.85h-24.36v-1.85c2.64.15,5.96-.19,6.47-3.24v-35.73c.13-1.2-1.88-3.05-2.95-3.05h-3.52v-1.85h24.35ZM108.55,147.57v-6.66h-.19v6.66h.19ZM107.59,142.76h-15.41c.23.42.23.69,0,1.11h15.41v-1.11ZM107.59,144.24h-15.41v.93h15.41v-.93ZM107.59,145.54h-15.41c.18.39.17.73,0,1.11h15.41v-1.11Z"/>
  <path class="st0" d="M186.84,165.53c.87-.17,1.83-1.43,2.09-2.22.66-11.69.11-23.52.28-35.26-.32-3.47-2.72-4-5.9-3.8v-1.85s15.32,0,15.32,0c.84-.23,1.56-.64,2.44-.15.25.14.28.48.45.52,1.03.26,4.2.03,5.67.18,10.38,1.12,17.17,7.14,18.55,17.31.05.41-.09.93,0,1.26.04.17,1.03.43,1.35.77.79.85.75,4.49.33,5.52-.45,1.12-1.5,1.06-1.64,1.27-.12.18,0,1.24-.08,1.68-1.56,8.66-10.08,15.85-19.07,16.44-1.47.1-3.62-.24-4.95,0-1,.18-1.55,1.05-3.05.17h-15.32s0-1.85,0-1.85c1.04-.14,2.55.19,3.52,0ZM220.81,142.02c.65-2.57-1.95-7.94-3.8-9.91-3.22-3.43-10.72-5.23-15.33-4.55-.42.06-.34.57-.99.72-.59.13-1.03-.02-1.57-.15v33.5c.87-.18,1.34-.3,2.14.18.71.43.52.63,1.76.74,4.99.45,10.77-1.75,13.98-5.46,2.07-2.39,3.69-4.93,4.02-8.12-1.99-.62-1.69-3.5-1.54-5.21.08-.95.24-1.33,1.15-1.75-.12.24-.41.48-.48.73-.19.65-.2,4.16-.07,4.9.05.32.2.74.56.84-.55-1.18-.17-1.97-.17-3.05-.01-1.86-.09-1.6.37-3.43ZM224.99,143.69c-2.16-.82-3.91.72-2.85,2.77.33.08.38-.13.57-.28.46-.35,1.64-1.49,2-1.94.15-.18.37-.24.28-.55ZM225.56,144.24c-.33-.08-.38.13-.57.28-.28.21-2.09,1.94-2.19,2.13-.38.71,1.14.6,1.52.55,1.32-.21,1.72-1.9,1.25-2.95Z"/>
  <path class="st0" d="M540.08,153.5c.26,3.08-.35,6.7,0,9.72.16,1.42,1.03,1.81,2.38,1.94,2.56.25,8.48.22,10.95-.27,5.93-1.16,8.62-5.73,9.94-11.06.14-.57.48-3.14.59-3.31.26-.37,1.88-.09,2.39-.18l-.76,17.22h-39.01v-2.41h4.47c.66,0,1.91-.81,2.06-1.51.3-12.46.03-24.98.13-37.46.23-.76-.99-2.12-1.62-2.12h-5.04v-2.41h37.48l.93,15.26c-.13.44-2.15.35-2.24.27-.21-.18-1-4.44-1.3-5.31-1.34-3.94-3.92-7.4-8.52-7.81-2.61-.23-8.48-.29-11.04,0-.78.09-1.8.79-1.8,1.58v16.75h2.85c-.32.44-.66,1.66-.57,2.22-1.74-.05-2.64-.69-4.32.15-4.04,2-3.23,10.69,2.04,8.74Z"/>
  <path class="st0" d="M499.93,121.66c.51,0,1.02,0,1.52,0,6.21,0,12.43,0,18.65,0l.76,17.4c-.49-.08-1.95.18-2.2-.18-.12-.18-.59-3.29-.75-3.9-1-3.93-2.93-9.06-7.14-10.64-2.22-.83-6.59-1.46-6.66,1.84v37.03c-.12.84,1.08,1.94,1.82,1.94h5.8v2.41h-21.88v-2.41h5.99c.73,0,1.66-.99,1.62-1.75l-.09-38.05c-.62-2.33-4.32-1.68-6.05-1.06-5.84,2.09-7.41,9.47-8.35,14.74l-2.26.03c.15-5.8.65-11.61.95-17.4,6.09,0,12.18,0,18.27,0Z"/>
  <path class="st0" d="M150.98,121.66v2.41h-4.85c-.09,0-1.09.36-1.25.45-.88.48-.9,1.21-.6,2.09l12.12,18.37,8-14.06c1.08-1.72,1.97-4.18.29-5.84s-4.6-.58-5.35-1.09c-.38-.25-.09-1.82-.18-2.33h18.08v2.41c-4.27-.27-6.18,1.61-8.21,4.87-3.9,6.26-7.08,13.21-10.96,19.51.29,4.54-.56,9.93-.03,14.37.05.45.24,1.17.54,1.51.23.26,1.53.83,1.81.83h5.23c-.08.51.2,2.07-.18,2.33l-21.23.08c-.87-.16-.34-1.73-.48-2.41h5.42c.99,0,2.03-1.01,2.17-1.96.63-4.31-.36-10.07-.07-14.52l-15.06-22.74c-1.42-1.73-3.86-1.91-5.98-1.87v-2.41h20.74ZM154.21,146.65c-.17.18,1.01,3.68,1.23,3.7,2.02-1.11.94-3.7-1.23-3.7ZM153.83,147.02c-.45-.38-1.21.84-1.29,1.25-.26,1.33,1.07,2.53,2.44,2.27-.21-.46-1-3.4-1.14-3.52Z"/>
  <path class="st0" d="M248.39,137.02c.02.29-.32.14-.38.19.03-.02.01-.29.38-.19Z"/>
  <path class="st0" d="M247.63,137.58c-.03-.21.18-.18.19-.19-.01,0,.02.22-.19.19Z"/>
  <path class="st0" d="M247.82,137.39c.05-.06.13-.15.19-.19-.06.05-.12.13-.19.19Z"/>
  <path class="st0" d="M244.97,122.4v13.33h3.33c.12,0,.87.57.95.74.39.83-.19,2.22-1.14,2.22h-3.14v24.53c0,.73,1.62,2.31,2.38,2.31h3.33v1.85h-21.69v-1.85h3.14c.91,0,2.68-1.84,2.57-2.87v-35.36c-.42-2.84-3.2-3.27-5.71-3.05v-1.85h15.98ZM236.03,127.21v35.72l.39-1.94v-31.85s-.39-1.93-.39-1.93ZM248.39,137.02c-.05-.08.07-.47-.01-.54-.5-.41-1.73.64-1.31,1.09.06.07.52-.04.56,0,.05.05-.12,1.16.87.39.89-.69-.08-.89-.11-.94Z"/>
  <path class="st0" d="M319.36,134.62c-.33.48-2.01,3.05-2.17,3.16-.68.47-1.95-.14-3.15,1.19-1.05,1.16-.5,2.39-.94,2.98-.18.25-1.82,1.07-2.3,1.46-1.29,1.05-2.09,2.57-3.33,3.61-1.36,1.14-3.22,1.56-4.47,2.87-1.05,1.1-1.4,2.64-2.56,3.8-.44.44-2.08,1.76-2.61,1.63-1.78-.43-1.58-2.54-1.42-3.9.37-3.15,2.71-5.84,2.99-8.75s-.5-5.21-.73-7.98c-.27-3.19,2.44-4.59,2.81-7.21s-.95-4.81-.74-7.3c.06-.71.45-2.66,1.25-2.78.73-.11,3.45.71,4.31.98,5.34,1.7,10.52,5.5,13.7,9.99.47.66,1.92,2.57,1.58,3.28-.94.84-1.48,1.96-2.19,2.97Z"/>
  <path class="st0" d="M394.33,149.61h10.46s-6.28-14.81-6.28-14.81c-.49-.08-.29.04-.4.26-.2.42-.61,2.39-.76,2.5-.23.16-1.14-.26-1.5-.17-.05-.56.21-1.06.38-1.58,1.48-4.45,3.63-8.72,5.1-13.18.26-.64,1.13-.42,1.73-.39l17.12,40.64c.53,1.26,1.49,2.41,2.72,3.1.98.55,1.56.03,1.31,1.78h-20.55v-1.3c2.4.09,5.76-.19,6-3.14.07-.83-.87-3.12-1.2-4.04-.72-2.07-1.68-4.06-2.33-6.15h-12.75l.57-2.22c.16-.41.25-.95.38-1.3Z"/>
  <path class="st0" d="M274.08,135.36c2.56.92,4.77.75,7.08,1.53,4.06,1.37,6.18,3.24,11.08,3.29.74,0,1.85-.46,2.25-.36.29.08.57.57.95.75,1.38.65,1.76-.14,1.86,2.08.11,2.52-1.93,6.43-2.29,9.45-.05.44.1,1.71-.03,1.92-.09.13-1.88.27-2.82,1.42-1.05,1.27-.46,1.69-.8,2.74-.16.5-3.44,1.3-4.11,1.37-3.49.36-4-1.38-6.45-2.87-1.89-1.15-4.22-2.03-6.15-3.18-2.68-1.61-3.09-1.92-3.71-4.99-.94-4.66-.53-9.41,1.05-13.89.68.29,1.4.49,2.09.74Z"/>
  <path class="st0" d="M447.04,123.14v1.85h-2.76c-.43,0-1.79.65-2.12.99s-1.02,1.87-1.02,2.25v34.71c.31-.26,1.71-.29,1.71.09v6.39c0,.12-2.18.62-1.71-.74-1.05.86-2.21.13-3.13-.56-4.37-3.28-6.64-8.27-6.96-13.59-.52-8.64.44-17.74-.04-26.43-.57-2.91-3.24-3.3-5.85-3.1v-1.85h21.88ZM432.19,130.73c-.04,8.41-.31,16.82,0,25.27,0,.25-.16.77.28.65-.29-8.62.07-17.29-.09-25.91-.02-.82.28-2.25-.38-2.78,0,.77,0,1.55,0,2.33,0,.24.2.42.2.45ZM442.28,164.05v4.26c.25-.08.34-.99.36-1.23.04-.43.03-.85.03-1.28l-.39-1.75Z"/>
  <path class="st0" d="M296.72,167.56c-.61-1.04-2.32-3.14-2.58-4.07-.13-.49,0-1.73.27-2.12.1-.14,2.12-.11,3.26-1.31,1.22-1.28.63-2.24,1.12-2.98.24-.36,1.77-1.43,2.29-2.03,2.11-2.41,2.86-5.4,6.95-5.28,4.33.12,5.54,4.53,7.74,7.48.24.33.6.51.73.68.05.06.05.3.18.46.34.42,1.46,1.43,1.63,1.76.15.3-.06.5-.21.72-.62.9-2.77,2.7-3.72,3.42-4.7,3.58-10.54,5.5-16.51,5.64-.23-.61-.38-1.26-.68-1.84-.16-.3-.43-.44-.49-.54Z"/>
  <path class="st1" d="M300.72,120.18c-.2,2.48,1.1,4.81.74,7.3-.37,2.62-3.08,4.02-2.81,7.21.24,2.77,1.02,4.97.73,7.98s-2.62,5.6-2.99,8.75c-.16,1.35-.36,3.47,1.42,3.9.54.13,2.17-1.2,2.61-1.63,1.17-1.16,1.52-2.7,2.56-3.8,1.25-1.31,3.11-1.73,4.47-2.87,1.24-1.04,2.04-2.56,3.33-3.61.48-.39,2.12-1.22,2.3-1.46.44-.59-.11-1.82.94-2.98,1.2-1.33,2.48-.71,3.15-1.19.16-.11,1.84-2.69,2.17-3.16l.38,1.11c-.04.06,0,.48-.14.68-.36.47-1.5,1.6-1.35,2.14.07.27.78.87.96,1.3.2.48.25,1.1.34,1.61.47-.14,1.09-.1,1.52-.19-.16.53.14,1.06.19,1.48.02.18,0,.37,0,.56s0,.37,0,.56c-.18-.17-.82-.71-1-.79-1.71-.69-2.15.87-3.52,1.11-1.26.22-1.93-.49-3.1-.24-1.75.38-4.9,2.88-5.32,4.64.83.31,1.67.51,2.47.92,3.05,1.56,4.06,5.16,6.09,7.68l-.38.74c-.13-.17-.49-.35-.73-.68-2.2-2.94-3.4-7.36-7.74-7.48-4.09-.11-4.84,2.87-6.95,5.28-.52.6-2.05,1.66-2.29,2.03-.49.74.1,1.7-1.12,2.98-1.14,1.2-3.16,1.16-3.26,1.31-.27.38-.4,1.63-.27,2.12.25.93,1.96,3.03,2.58,4.07-.57.15-1.32-.44-1.71,0-1.19-1.7-2.13-2.37-1.9-4.72.05-.52.47-1.43.39-1.82-.02-.09-1.4-1-1.48-1.02-.6-.17-4.05,1.08-5.29,1.08-3.15.02-4.3-2.11-6.74-3.34.51,1.34.65,2.29.76,3.7-.66-.2-1.26-.9-1.72-1.38-.55-.58-1.66-1.74-2.09-2.32s-1.05-1.73-1.43-2.4c-.33-.58-.67-1.22-.85-1.85,1.92,1.15,4.26,2.04,6.15,3.18,2.46,1.49,2.97,3.24,6.45,2.87.67-.07,3.95-.86,4.11-1.37.34-1.05-.25-1.47.8-2.74.94-1.14,2.74-1.29,2.82-1.42.13-.2-.02-1.48.03-1.92.35-3.02,2.4-6.93,2.29-9.45-.1-2.22-.48-1.43-1.86-2.08-.38-.18-.67-.68-.95-.75-.4-.11-1.5.37-2.25.36-4.9-.06-7.02-1.93-11.08-3.29-2.31-.78-4.52-.61-7.08-1.53l.57-1.48c2.33.79,5.42.34,7.6,1.59.77.44,1.25,1.08,2.07,1.5,2.61,1.34,6.84,1.57,9.55.52-2.52-1.56-5.08-2.93-5.84-5.98-.91-3.65.04-5.47-3.48-8.18l1.52-1.11c3.62,2.84,2.55,4.99,3.71,8.7.59,1.89,3.18,4.26,5.1,4.86.47.15,1.86.09,2.01-.35.18-.51.1-2.03.3-2.85.44-1.74,1.76-3.42,1.98-5.29.3-2.49-.93-4.85-.74-7.29l2.28.19ZM296.67,136.69c-2.05.2-1.81,3.35.52,2.92,1.59-.29,1.4-3.1-.52-2.92ZM316.08,139.65c-1.91.43-.97,3.18.68,2.89,1.88-.33,1.67-3.42-.68-2.89ZM294.59,155.38c-3,.4-2.59,4.93.69,4.58,3.01-.33,2.36-4.99-.69-4.58Z"/>
  <path class="st0" d="M330.97,137.76c.24.12.52.29.76.37l.19,24.8c.35-.07.35-.36.39-.64.16-1.41.15-3.68.19-5.18.16-6.07-.14-12.17,0-18.24.16-.17.93.54,1.16.64s.45.06.56.1c.03.05-.06.28.02.35.11.09.42-.02.55.02.79.99.94.61,1.33.93.1.08-.29.24.38.37.29.33.21.22.57.37.52.68,1.46,1.19,2.28,1.48.31.27.36.23.57.37.18.12.29.49.76.37l.08,19.63c.16.98.85,2.11,1.87,2.44.96.3,3.36-.05,3.77.22.35.24.12,1.34.18,1.77h-21.88v-1.85h3.52c1.2,0,2.4-2.17,2.38-3.24.21-8.13-.28-16.31,0-24.44.01-.36-.19-.74.38-.64Z"/>
  <path class="st0" d="M337.25,140.17l-1.9-1.29c1.95.15,3.57-.89,5.33-1.48v4.63c-.19-.07-.37-.14-.57-.18-.23-.16-.08-.2-.57-.37-.39-.62-.67-.39-1.14-.56-.02-.03.08-.22-.12-.38-.22-.17-.75-.25-1.02-.36Z"/>
  <path class="st0" d="M337.25,140.17c-.09.53.73.6,1.14.74.56.62.56.35,1.14.56.03.05-.06.28.02.35.1.09.41-.01.55.02,5.94,4.26,13.17,7.67,19.21,11.95l.39.82c-.02.05-.16.1-.19.19-.58-.04-1.14-.44-1.65-.71-5.89-3.16-11.5-6.74-17.19-10.21-.29-.17-.72-.34-.76-.37-.18-.12.28-.07-.57-.37-.95-.82-.96-.94-2.28-1.48-.03-.04.07-.25-.04-.34-.12-.1-.39,0-.54-.03-.03-.03.04-.24-.05-.32-.12-.11-.31-.03-.34-.05-.5-.44-.54-.69-1.33-.93-.29-.37-.21-.22-.57-.37-.26-.44-.59-.52-.95-.83,1.24-.27,2.25.8,3.29,1.25.27.12.55.08.7.14Z"/>
  <path class="st0" d="M429.25,181.26c1.14.12,2.92.81,3.71,1.63,1.53,1.59,1.58,4.69.08,6.32-.29.31-1.48.85-1.22,1.12,3.46.91,3.76,5.78,1.42,7.96-.93.87-3.12,1.67-4.37,1.67h-14.37c-.21-.67.49-.65.67-.93.68-1.07-.25-14.56,0-16.84-.39-.28-.79-.33-.67-.93h14.75ZM419.64,188.67h8.28c1.98,0,2.83-3.01.99-3.93-.11-.06-.94-.33-.99-.33h-8.28v4.26ZM419.64,196.81h7.9c.06,0,1.11-.23,1.24-.27,1.7-.56,2.28-2.74,1.03-3.97-.25-.24-1.42-.76-1.7-.76h-8.47v5Z"/>
  <path class="st1" d="M542.93,142.39c.23-.31,1.01-.46.96-.82-1.32-2.19-3.62-7.36-.01-8.53,3.98-1.29,8.65,3.95,6.09,7.41-.22.3-1.08.91-1.12,1.14-.03.19,1.87,2.74,1.52,3.56,3.16-.51,10.61,1.07,7.56,5.45-2.32,3.34-7.27,3.64-9.14-.31-.19-.4-.52-1.76-.72-1.9-.19-.13-1.17.29-1.62.31-.57.02-1.52-.3-1.88-.18-.17.06-1.03,1.72-1.3,2.08-.59.8-2.29,2.56-3.2,2.9-5.27,1.95-6.08-6.74-2.04-8.74,1.68-.84,2.58-.2,4.32-.15-.09-.56.25-1.78.57-2.22Z"/>
  <path class="st0" d="M508.05,197.49c-4.91,4.64-15.73,3.51-18.42-3.14-3.78-9.32,5.76-15.44,14.54-12.85,7,2.07,9.11,11.04,3.89,15.99ZM498.55,184.27c-7.58,1.01-7.13,13.43,2.04,12.72,8.62-.66,7.95-14.05-2.04-12.72Z"/>
  <path class="st0" d="M518.96,192.37v6.39c0,.31,1.29.62.95,1.2h-6.09c-.18-.7.58-.68.81-1.15-.1-4.94.61-10.71.15-15.61-.03-.29-.03-.5-.15-.78-.26-.59-.99-.44-.81-1.16h13.98c.32,0,1.73.38,2.13.52,5.49,1.91,4.05,10.59-2.13,10.59h-8.85ZM518.96,189.22h7.9c1.22,0,2.23-1.34,2.2-2.49-.04-1.23-1.12-2.32-2.39-2.32h-7.71v4.81Z"/>
  <path class="st0" d="M452.55,181.26c0,.9-.82.59-.96,1.75-.25,2.05-.22,9.72.32,11.54.99,3.35,9.92,3.46,10.44-.51l.09-11.58c-.15-.78-1.18-.31-.95-1.2h5.71c.21.67-.49.65-.67.93-.37.57.04,9.9-.09,11.58-.33,4.32-2.53,5.86-6.79,6.35-3.26.38-9.4.24-11.33-2.81s-.22-14.35-1.15-15.26c-.3-.29-.92.02-.72-.78h6.09Z"/>
  <path class="st0" d="M286.07,122.22c-.39-.31-1.85-1.06-2-1.29-.19-.28-.08-.28.11-.46.36-.35,3.1-1.48,3.75-1.72,3.65-1.34,7.57-1.87,11.47-1.71-.34,1.09-.86,1.77-.95,2.96-.19,2.44,1.04,4.81.74,7.29-.23,1.87-1.55,3.55-1.98,5.29-.21.83-.13,2.34-.3,2.85-.15.44-1.54.49-2.01.35-1.92-.59-4.51-2.96-5.1-4.86-1.16-3.71-.09-5.86-3.71-8.7Z"/>
  <path class="st0" d="M566.14,183.67c.16.16-2.16,3.83-2.38,3.89-.73.22-.49-.82-.94-1.31-1.35-1.45-5.32-2.16-7.25-2.04-8.85.55-8.83,12.3.19,12.79,2.64.14,6.8-.85,7.81-3.52.41.47,2.89,3.75,2.57,4.07-.5-.02-.79-.25-1.33-.11-.78.2-2.48,1.42-3.48,1.81-7.66,2.99-17.5-.59-16.68-9.75.68-7.56,9.4-9.97,15.89-7.87,1.22.4,3.86,2.1,4.61,2.19.35.04.66-.18,1-.15Z"/>
  <path class="st0" d="M284.55,123.33c3.52,2.71,2.57,4.53,3.48,8.18.76,3.05,3.32,4.42,5.84,5.98-2.71,1.05-6.94.83-9.55-.52-.82-.42-1.29-1.06-2.07-1.5-2.17-1.25-5.26-.8-7.6-1.59-.59-.2-1.8-.84-1.68-1.53.1-.57,1.29-2.41,1.68-3.01,1.89-2.92,4.43-5.54,7.37-7.47.16-.06.28,0,.42.07.13.06,1.89,1.23,2.1,1.39Z"/>
  <path class="st0" d="M321.27,143.87c.9.87.96,1.18,2.27,1.95.28.17.77.2.91.31.38.3-.09,2.23-.2,2.77-.5,2.39-1.5,5.04-2.69,7.19-.27.49-1.89,3.09-2.19,3.25-.23.12-.32.08-.49-.1-.52-.68-1.5-1.43-1.99-2.05-2.03-2.52-3.03-6.13-6.09-7.68-.8-.41-1.64-.61-2.47-.92.42-1.75,3.57-4.25,5.32-4.64,1.17-.26,1.84.46,3.1.24,1.36-.24,1.8-1.8,3.52-1.11.18.07.82.61,1,.79Z"/>
  <path class="st0" d="M250.49,137.76c.05.07.1.24.19.37,1.84,2.78,3.67,5.66,5.52,8.51.44.69.89,1.35,1.33,2.04,2.83,4.36,7.62,13.72,12.24,15.95.76.36,3.05.78,3.17.9.1.1-.05,1.51,0,1.84h-15.79v-1.85h2.76c.14,0,1.18-.4,1.37-.52,1.12-.65,1.18-2.1.71-3.18-2.42-4.26-5.27-8.27-7.89-12.41-1.76-2.77-3.3-5.74-5.33-8.33-.06-.16-.14-.25-.19-.37-.15-.32-.9-1.51-.76-1.66,1.18-.1,2.08-.81,1.9-2.04.21.16.62.55.76.74Z"/>
  <path class="st0" d="M468.73,180.34c.56-.53.74,1.19,1.42.94,5.09-.41,11.01.52,16-.01,1.4-.15.54-.98,1.61-.93v5c-.82.31-.55-.93-1.24-.93h-6.18v14.35c0,.25,1.27.6.95,1.2h-6.09c-.27-.63.95-.92.95-1.39v-14.16h-6.18c-.69,0-.41,1.24-1.24.93.14-.65-.18-4.82,0-5Z"/>
  <path class="st0" d="M368.26,150.17c-.81-.14-1.6-.28-2.47-.19v-22.12c0-.23-.5-1.3-.68-1.56-1.13-1.57-3.46-1.54-5.22-1.49v-1.85h14.84v1.85c-2.58-.11-5.29,0-5.81,2.95l-.08,22.3c0,.19-.44.13-.57.11Z"/>
  <path class="st1" d="M368.26,150.17c6.87.86,9,10.69,2.6,14.1s-13.88-2.64-11.35-9.47c.03-.08.17-.14.19-.19.74-1.51,2.75-3.5,4.38-4.07.95-.34,3.19-.5,4.19-.37ZM368.45,151.65c-1.6-1.23-4.92.06-6.18,1.3-.4.39-1.93,2.3-.63,2.18.72-.06,1.21-.38,2.15-.34,1.93.08,3.28,1.18,4.85-.73.05-.07.14-.11.19-.19.53-.75.59-1.13,0-1.85-.03-.04-.36-.36-.38-.37ZM371.69,154.24s-.04.62-.13.89c-.55,1.51-1.46,2.11-2.11,3.31-1.47,2.72.98,5.17,2.82,2.92,1.27-1.56,1.5-4.08.72-5.88-.14-.31-.84-1.66-1.29-1.25ZM366.36,158.87c.1.14.44.24.38.55.35.09.07-.4.28-.37s-.07.44.28.37l.03-.33c.3.22,1.38-.83,1.15-1.12l.34-.03c.06-.27-.12-.18-.38-.18v-.18s.38,0,.38,0c.08-.32-.31-.12-.37-.19-.05-.07.23-.36.16-.51-.02-.04-.65-.58-.69-.6-.18-.11-1.66-.4-1.74-.33-.09.19-.09.41-.21.58-.05.08-.49.5-.51.54-.09.18.47.42-.45.33-.08.31.3.1.35.27s-.18.8-.15.83c.04.05,1.04.37,1.13.38ZM365.6,163.68c.49.09.68.22,1.33.19.34-.02.54.03.38-.46-.07-.2-.3-.04-.38-.09s-.13-.12-.19-.19l-2.37-4.64c-2.58-2-4.76.13-2.85,2.77,1.06,1.48,2.34,2.11,4.08,2.42Z"/>
  <path class="st1" d="M342.77,123.51c.28.34.55.72.76,1.11,4.2,7.81-3.26,16.27-11.8,13.51-.24-.08-.52-.25-.76-.37-4.94-2.39-6.6-7.95-4.38-12.77.29-.64.64-1.13,1.14-1.67,4.12-4.44,11.09-4.54,15.03.19ZM333.64,127.95c.43.23.41.8.96-.27.74-1.45.91-5.71-.72-6.54s-5.09,2.13-5.92,3.42c-1.63,2.54,1.49,1.94,2.87,2.14.91.13,1.99.81,2.8,1.25ZM340.68,127.03c.31-.16.63-.1,1.13-.48,3.18-2.46-4.53-6.48-5.9-5.55-.52.35.45,3.33.4,4.27-.11,1.96-1.96,3.19,1.56,2.81,1.35-.15,1.77-.52,2.81-1.06ZM340.1,134.43s.1.32.48.37c2.3.35,3.52-4.68,3.28-6.35-.36-2.48-2.63.04-4.06.41-1.62.42-3.67-.53-3,1.65.47,1.55,1.85,3.31,3.3,3.92ZM331.16,132.77c.2-.33,1.11-1.14,1.52-1.67.58,0,1.81-.65,1.43-1.12-.11-.15-.44-.13-.48-.17-1.23-1.3-3.08-2.28-5.04-2.24-3.39.07-1.4,5.6-.09,7.14,1.47,1.74,1.92-.21,2.57-1.39.1-.18.04-.48.09-.55ZM334.91,128.17c-.86.24-.97,1.31-.08,1.68,1.51.62,1.84-2.18.08-1.68ZM338.77,136.65c2.2-.87-1.12-2.26-1.72-3.1-.45-.63-.98-2.87-1.46-2.99-1.15-.28-5.43,4.37-3.95,6.08.73.84,3.47,1.01,4.54.91.75-.07,2.14-.3,2.59-.9Z"/>
  <path class="st0" d="M280.74,161.46c-.1-1.41-.25-2.36-.76-3.7,2.45,1.23,3.6,3.36,6.74,3.34,1.25,0,4.69-1.25,5.29-1.08.09.02,1.47.93,1.48,1.02.08.39-.34,1.29-.39,1.82-.23,2.35.71,3.01,1.9,4.72.22.32,1.38,1.81,1.14,2.04-4.44-.26-8.75-1.55-12.54-3.81-.46-.27-2.52-1.54-2.69-1.82-.37-.59-.12-1.77-.18-2.51Z"/>
  <path class="st0" d="M57.88,120.22c2.06-.41,3.73.36,4.99,1.91,2.76,3.38,1.05,8.8-1.52,11.84-.68.8-4.6,4.38-5.43,4.36-.38-.01-1.12-1.14-.95-1.48s1.87-1.45,2.3-1.85c1.56-1.45,3.76-4.07,3.89-6.23.1-1.83-1.52-.9-2.76-.98-1.94-.13-3.41-1.94-3.33-3.79.06-1.36,1.36-3.47,2.81-3.76Z"/>
  <path class="st1" d="M256.2,146.65c-.31-.31.75-1.38.58-2.09-.04-.15-2.26-1.33-2.68-1.7s-2.61-3.63-2.65-4.09c-.04-.39.18-.74.19-1.1.07-4.1-3.76-5-6.47-2.31v-2.22c.12-.13.95.72,1.78.2.47-.3,1.47-6.01,1.85-6.96.11-1.61-3.39-.42-3.62-.64-.67-.64,1.46-.89,1.81-.92,11.02-.89,18.09,10.89,11.66,19.68-.25.35-1.99,2.61-2.44,2.16ZM250.72,126.15c-.41.4-.24,5.38-.23,6.35,0,.62-.44,1.55.7,1.71.47.07,5.06-1.35,5.86-1.63,1.27-.45,1.82-.37,1.15-1.86-.58-1.29-2.3-2.88-3.54-3.59-.73-.42-3.28-1.63-3.94-.99ZM252.63,137.07c-.26.4-.38.95-.06,1.35,1.52,1.18,3,3.03,4.49,4.15.46.35.94.82,1.53.39.78-.57,1.73-3.92,1.79-4.92.06-.92-.06-4.62-1.52-4.27l-6.23,3.3Z"/>
  <path class="st0" d="M541.79,181.26c.05,1.04-.8.21-.95,1.57-.54,4.79.41,10.49-.01,15.38-.21.99,1.11.85.96,1.75h-6.09c-.18-.7.58-.68.81-1.15-.13-4.97.65-10.89.15-15.79-.13-1.27-.95-.77-.96-1.75h6.09Z"/>
  <path class="st0" d="M443.61,181.26c.05,1.04-.8.21-.95,1.57-.54,4.79.41,10.49-.01,15.38-.21,1.02,1.12.9.96,1.75h-6.09c-.18-.7.58-.68.81-1.15-.13-4.97.65-10.89.15-15.79-.13-1.27-.95-.77-.96-1.75h6.09Z"/>
  <path class="st1" d="M257.53,148.68c.11-.56-.69-1.01-.55-1.53.07-.28.85-.84,1.11-1.15,7.69-9.41,1.38-22.62-10.93-21.74-.75.05-2.62.83-1.79-.26.6-.79.25-.86.4-1.83.1-.66.65-1.72,1.38-1.07,1.04.92-.1,3.15,2.19,2.6-.5-1.73,1.84-4.07,2.21-1.3.06.42-.23,1.32-.1,1.47.05.06,1.31.28,1.48.17.09-.06.5-1.44,1.17-1.73,1.81-.79,1.08,2.07.56,2.87,1.81.84,1.09.37,2.1-.45.91-.73,2.04-1.05,1.89.53-.12,1.18-1.65,1.65-.28,2.53.53.34,1.02-.47,1.59-.69.98-.38,1.83-.45,1.48.87-.32,1.18-1.88,1.26-.87,2.77.81-.44,3.78-1.23,2.95.55-.36.77-1.93,1.21-2,1.31-.04.05.35,1.23.4,1.26.52.33,3.78-.66,2.65,1.24-.65,1.09-2.2.73-2.29.82-.06.06-.06,1.61,0,1.67.12.12,2.94-.34,2.68,1.2-.2,1.16-2.57.36-2.67.46-.06.06-.28,1.32-.39,1.56,3.56.86,2.82,3.47-.75,1.77-.84,2.03.06,1.28.77,2.12.16.19.6,1.16.48,1.39-.58,1.14-2.74-.5-3.15-.29-1.21.61,0,1.36.29,1.96.31.65.56,1.87-.54,1.82-.63-.03-.9-.77-1.46-.89Z"/>
  <path class="st1" d="M393.95,150.91c-.06.15-.35.43-.47.74-.34.83-.69,1.71-.86,2.59-.22.18-3.97-1.5-4.56-1.75l4.76-12.49,4.56,1.48c-1.01,2.71-2,5.44-3.04,8.14-.13.35-.22.89-.38,1.3Z"/>
  <path class="st1" d="M468.73,127.58v4.35c0,.25-.6,1.53-.79,1.82-1.54,2.27-5.2,2.38-7.08.47-.27-.27-1.07-1.43-1.07-1.74v-4.91h8.94ZM463.02,131.28c.17.2,1.41-1.04,1.52-1.2.18-.25.34-.28,0-.56-.81-.52-1.86.97-1.52,1.76ZM465.3,130.18c-.23-.26-1.48,1.22-1.71,1.39,1.04.85,1.97-.31,1.71-1.39Z"/>
  <path class="st1" d="M499.93,121.66c.39-1.54-.8-1.12-1.06-1.47-.3-.4.1-1.15.01-1.52-.04-.17-1.05-1.45-1.14-1.45-1.29.94.62,2.62-.97,3.49-2.83,1.54-4.02-3.5-.29-2.97l2.68-4.34c.09-.26-.65-.35-.37-1,2.62.18.95-.78,1.14-1.93.11-.65.9-.95,1.32-.37.64.89-.42,1.69-.09,2.12.65.49,1.97-.32,1.63.8-.04.13-.39.13-.39.22-.01.28,2.69,4.62,2.96,4.72.19-.16,0-.39.37-.39,2.7,0,2.27,4.38-.77,3.18-1.49-.59-.14-2.57-1.12-3.53-.16.07-1.15,1.26-1.2,1.43-.13.45.09,1.26-.12,1.55-.26.35-1.45-.08-1.06,1.47-.51,0-1.02,0-1.52,0ZM501.45,118.7c.58-.78,2.02-1.78,1.61-2.77l-1.61-2.42v5.18ZM500.12,113.7c-.35-.07-.37.1-.54.31-.2.25-1.36,2.19-1.36,2.37,0,.26,1.19,1.78,1.46,2.08.12.13,0,.35.44.24v-5Z"/>
  <path class="st0" d="M466.25,154.89c-.09.9-.5,2.42-.77,3.32-1.8,5.88-7.25,9.6-13.4,10.29-.16-.02-.14-1.02-.08-1.09.12-.14,2.98-.6,3.63-.81,4.73-1.54,9.47-6.66,9.47-11.7v-17.03c0-.37,1.14-.37,1.14,0v17.03Z"/>
  <path class="st1" d="M385.39,194.96v4.81h-1.71v-11.94c2.18-.87,6.55-.86,7.62,1.66,1.61,3.8-2.45,6.05-5.91,5.47ZM385.39,188.67v4.72c0,.64,3.43.42,4.27-1.03,1.62-2.83-1.86-4.23-4.27-3.69Z"/>
  <path class="st0" d="M364.08,150.54c-.26.1-.76-.03-.97-.26-3.13-3.57-6.22-7.17-9.19-10.86-2.63-3.27-6.65-7.86-8.72-11.32-.38-.64-.72-1.19-.72-1.98,3.72,3.89,7.16,8.06,10.54,12.24,2.74,3.38,6.28,7.48,8.64,11.03.12.17.84,1.02.42,1.17Z"/>
  <path class="st0" d="M463.4,154.89c-.49,5.38-3.62,9.6-9.28,10.41-1.08.15-2.45.64-2.14-.87,4.95-.12,8.54-2.49,9.8-7.22.11-.4.47-1.85.47-2.13v-17.21c0-.37,1.14-.37,1.14,0v17.03Z"/>
  <path class="st0" d="M380.44,167.75c.05-.31-.07-1.78,0-1.85.06-.06,1.21-.06,1.77-.23.73-.22,2.7-1.56,2.93-1.59.33-.03.97.49,1.68.53.78.04,1.6-.44,1.88-.4.1.02.34.56.59.76,1.31,1.03,3.26.95,4.86.92v1.85h-13.7Z"/>
  <path class="st1" d="M399.85,199.77c-1.15-.01-1.58.34-1.81-.92-5.22,3.86-8.9-3.63-1.33-4.63.96-.13,1.65.41,1.15-1.12-.55-1.68-3.24-1.14-4.48-.54-.85-1.78,2.06-1.97,3.33-1.85,4.54.42,2.33,6.2,3.14,9.07ZM398.14,195.33c-1.33-.08-3.88.05-4.01,1.76-.13,1.81,1.9,2.19,3.15,1.2.89-.69.91-1.95.85-2.97Z"/>
  <path class="st0" d="M374.73,166.08v1.85h-14.84v-1.85h3.33c.36,0,1.16-.69,1.54-.74.58-.08,1.95.25,2.85.19.63-.04,1.61-.42,2.08-.37.39.04,1.47.92,1.91.92h3.14Z"/>
  <path class="st0" d="M319.75,135.73s.44-.08.68-.36c.33-.38,1.56-2,1.79-2.15.13-.08.5-.15.57-.09.15.13,1.09,3.27,1.21,3.73.14.54.67,2.74.47,3.08-1,.59-2.23,1.11-3.38,1.33-.43.09-1.05.05-1.52.19-.1-.51-.14-1.13-.34-1.61-.18-.43-.89-1.03-.96-1.3-.15-.55.99-1.67,1.35-2.14.15-.2.1-.63.14-.68Z"/>
  <path class="st1" d="M248.58,140.73c.06.12.13.21.19.37.13.35.37.52.37.99-.02,1.31-1.68,5.52-1.23,6.41.62,1.22,4.17-.46,4.95-.38.3.03.64.35.48.56s-3.4.89-3.9.92c-.6.05-4.02-.03-4.25-.39-.07-.12-.07-.79,0-.87.07-.07.4-.02.54-.11.16-.11.37-2.14.39-2.59.04-.74.1-4.53-.1-4.92-.22-.43-1.27-.48-.86-1.66,1.03,1.03,1.95,1.47,3.42,1.67Z"/>
  <path class="st1" d="M458.02,125.22l12.32-.03c1.21.4,1.23,1.81-.18,1.85h-12.18c-1.02-.2-.83-1.48.03-1.82ZM469.2,125.55c-2.93-.29-6.84,0-9.89,0-.17,0-.69.34-1.05.19v.18s11.99,0,11.99,0v-.18c-.39.15-.81-.16-1.05-.19Z"/>
  <path class="st1" d="M402.32,190.89h1.52c.14.14-.26,1.54.19,1.66.31-1.26,1.53-2.03,2.86-1.85-.05.27.07,1.42,0,1.48s-1.29.02-1.9.47c-.28.2-.96,1.42-.96,1.66v5.46h-1.71v-8.88Z"/>
  <path class="st0" d="M387.67,159.61c.07.05.12.13.19.19.06.05.31.04.48.18,1.7,1.46,1.22,4.2-1.14,4.28-3.78.12-3.26-5.27.47-4.64Z"/>
  <path class="st1" d="M254.1,149.43c.16.68-1.39.6-1.52.75-.24.26,1.16,3.36-1.04,3.15-.22-.02-1.1-2.18-.87-2.6-.32.24-1.55.18-1.69.4-.1.15.01,2.5-.52,2.58-1.78.26-1.46-2.68-1.77-2.89-.17-.12-1.3-.13-1.35-.08-.11.1.23.94-.19.93v-1.85c2.28.54,4.21.4,6.47-.09.6-.13,2.28-1.09,2.47-.28Z"/>
  <path class="st1" d="M443.23,169.05v-2.59h5.04c1.54,0,1.6,2.59.38,2.59h-5.42Z"/>
  <path class="st1" d="M443.23,166.27v-2.59h5.42c.7,0,1.08,1.31.68,1.96-.08.13-.78.63-.87.63h-5.23Z"/>
  <path class="st1" d="M387.67,159.61c-.18-.13-.4-.17-.38-.45.06-.86,1.14-2.47,1.13-3.17-.01-.56-1.27-1.79-.74-2.86.56.12,4.42,1.3,4.56,1.49.07.1-.02.41-.07.56-.4,1.03-2.06.99-2.22,1.21-.34.47-.99,3.29-1.12,3.4s-.8-.36-.95,0c-.07-.05-.12-.14-.19-.19Z"/>
  <path class="st1" d="M46.66,151.5c3.37-.67,3.67,4.37.69,4.58s-3.44-4.03-.69-4.58ZM48.99,153.5c-.34-1.7-2.41-2.02-3.42-.65l1.24-.28h1.23c.13.84-1.25-.36-1.52.55.79.05,1.79-.32,1.71.74l.19-.56.57.19ZM46.14,153.68l.1-.55c-.29.19-.47.58-.1.55Z"/>
  <path class="st0" d="M276.93,157.75c.2.27,1.16,2.54,1.25,2.95.04.18.31,1.32-.2,1.12-.18-.07-2.08-2.35-2.35-2.71-.9-1.2-1.7-2.5-2.31-3.86,1.16.44,2.29,1.44,3.13,2.32.14.15.46.15.48.18Z"/>
  <path class="st1" d="M394.47,137.8c1.34-.29,2.93.12,3.25,1.58.11.5.26,1.64-.53,1.45-1.18-.28-2.69-1.22-3.91-1.58-.34-.41.75-1.35,1.2-1.45Z"/>
  <path class="st0" d="M321.27,142.76l3.62-.74v3.05c0,.76-2.76-.63-3.05-.92-.23-.23-.27-.64-.57-.84,0-.18.02-.38,0-.56Z"/>
  <path class="st1" d="M466.78,136.14c.3.28.2.96-.14,1.16-.37.21-4.57.17-4.9-.14-1.74-1.64,4.57-1.47,5.04-1.02Z"/>
  <path class="st1" d="M45.76,164.23c-.16-.15.29-2.73.5-2.79.16-.04,1.88-.03,1.96.03.13.11.48,2.38.4,2.76h-2.85Z"/>
  <path class="st0" d="M342.77,123.51c-.02-.65-.12-.51.47-.56,1.08-.08,2.25.06,3.34,0-.07.46.18,1.71-.18,1.96-.32.21-2.5.2-2.87-.29-.21-.39-.48-.77-.76-1.11Z"/>
  <path class="st0" d="M467.01,124.81h-1.71v-2.87c0-.23.61-.78.89-.81.24-.02.82.56.82.62v3.05Z"/>
  <path class="st0" d="M462.83,124.81h-1.52v-3.24c0-.48,1.52-.28,1.52.19v3.05Z"/>
  <path class="st0" d="M326.6,124.99h-1.9s0-2.04,0-2.04c.79.02,1.59-.02,2.39,0,.37.01.76-.19.66.37-.5.54-.85,1.03-1.14,1.67Z"/>
  <path class="st1" d="M250.49,137.76c.04-1.58-.86-2.78-2.57-2.6-.34.04-2.76.86-1.22-.26s3.88-.23,4.28,1.55c.06.28.4,1.81-.3,1.68-.09-.13-.14-.3-.19-.37Z"/>
  <path class="st1" d="M47.66,158.31c.1.1.23,2.41.19,2.78h-1.33c0-.37.09-2.68.19-2.78.03-.03.92-.03.95,0Z"/>
  <path class="st1" d="M451.57,165.69c-.7.42-2.63-.11-1.79-1.28.18-.26,1.58-.26,1.83-.09.32.22.14,1.26-.04,1.37Z"/>
  <path class="st1" d="M450.01,167.22c.82-.26,2.45.05,1.7,1.1-.18.26-1.59.26-1.83.09-.31-.21-.3-1.05.13-1.19Z"/>
  <path class="st1" d="M47.47,156.46l.19,1.48c-1.19.25-.67-.6-.76-1.48h.57Z"/>
  <path class="st1" d="M247.63,139.8c-.1.11-1.29-.43-1.33-.74.48-.23,1.82.22,1.33.74Z"/>
  <path class="st1" d="M107.59,145.54v1.11h-15.41c.17-.38.18-.73,0-1.11h15.41Z"/>
  <path class="st1" d="M107.59,142.76v1.11h-15.41c.23-.42.23-.69,0-1.11h15.41Z"/>
  <rect class="st1" x="92.18" y="144.24" width="15.41" height=".93"/>
  <path class="st1" d="M224.99,143.69c.08.32-.14.37-.28.55-.36.45-1.53,1.6-2,1.94-.19.14-.24.36-.57.28-1.06-2.06.69-3.6,2.85-2.77Z"/>
  <path class="st1" d="M225.56,144.24c.48,1.05.08,2.74-1.25,2.95-.37.06-1.9.16-1.52-.55.1-.19,1.91-1.92,2.19-2.13.19-.14.24-.36.57-.28Z"/>
  <path class="st1" d="M220.81,142.02c-.46,1.82-.38,1.57-.37,3.43,0,1.08-.37,1.87.17,3.05-.36-.11-.5-.52-.56-.84-.12-.75-.12-4.25.07-4.9.07-.25.36-.49.48-.73h.19Z"/>
  <path class="st1" d="M153.83,147.02c.14.12.93,3.06,1.14,3.52-1.37.26-2.7-.94-2.44-2.27.08-.41.84-1.63,1.29-1.25Z"/>
  <path class="st1" d="M154.21,146.65c2.17,0,3.25,2.59,1.23,3.7-.22-.01-1.41-3.52-1.23-3.7Z"/>
  <path class="st1" d="M432.39,130.73h-.19s-.2-.21-.2-.45c0-.78.01-1.55,0-2.33.66.52.36,1.95.38,2.78Z"/>
  <path class="st0" d="M366.17,153.87c.06.07.13.12.19.19s.12.14.19.19c.01,0-.05.07.19.19.03.95-1.33.7-.95-.65.04-.1.1-.09.19-.09.06.07.13.12.19.19Z"/>
  <path class="st0" d="M365.79,152.2c.09.61.37.49.57.74.24.3.36.35.38.37.04.05.08.23.19.37.05.07.15.12.19.19.05.07-.11.39.19.37-.02.02.04.25-.03.35-.09.08-.41-.1-.54-.16,0-.24-.18-.17-.19-.19-.05-.07-.13-.12-.19-.19s-.12-.14-.19-.19c-.02-.02.01-.2-.19-.19-.04-.04-.05-.3-.18-.46-.32-.41-.86-.81-1.15-1.3.41-.31.83.1,1.14.28Z"/>
  <path class="st0" d="M368.45,151.65s.35.33.38.37v1.85c-.05.07-.14.12-.19.19-.41.54-1.28.14-1.33.19.1-.35-.16-.32-.19-.37-.05-.07-.15-.12-.19-.19-.06-.11-.1-.23-.19-.37-.28-.45-.36-.34-.38-.37-.26-.42.24-.27-.57-.74-.16-1.05,1.96-.86,2.66-.56Z"/>
  <path class="st0" d="M366.74,163.12c.06.06.11.13.19.19v.56c-.66.03-.84-.1-1.33-.19l.19-1.48c.42.18.64.62.95.93Z"/>
  <path class="st1" d="M45.85,164.97c-.08,0-.91-.18-.86-.37,1.49.11,2.89.06,4.37,0,.08.19-.44.37-.47.37-.95,0-2.14.1-3.04,0Z"/>
  <path class="st0" d="M366.36,158.87c-.63-.9-1.1-1.98.38-2.33,1.63-.38,2.11,2.63-.38,2.33ZM367.31,158.12c.34-.33-.46-1.47-.74-.62-.25.79.56.79.74.62Z"/>
  <path class="st0" d="M331.16,132.77c-.08.11-.41.53-.57.55v-5c.52,0,1.42.3,1.52.83.28,1.47-.14,2.45-.95,3.61Z"/>
  <path class="st0" d="M333.64,129.8c.43.67-.6.84-.95,1.3-.13,0-.25,0-.38,0v-2.04c.19.18,1.29.68,1.33.74Z"/>
  <path class="st0" d="M340.1,134.43c-.07-.03-1.15-.82-1.25-.91-.45-.46-1.34-1.96-1.56-2.55-.1-.25-.52-1.63-.42-1.72,1.31.1,2.54-.07,3.8-.37v5.55c-.17-.03-.45.05-.57,0Z"/>
  <path class="st0" d="M340.68,127.03c-.35.2-2.3.67-2.78.72-.59.06-1.19.01-1.78.02.37-1.64.98-2.96.19-4.63h4.47c.21,0,1.49,1.42,1.43,1.94-.01.12-1.42,1.89-1.53,1.95Z"/>
  <path class="st0" d="M333.64,127.95c-.05-.02-.5-.63-.77-.82-.35-.24-.81-.33-1.12-.58-.21-.17-.11-.53-.39-.45,0,.12.04.36-.12.38-1.05.17-2.19-1.15-3.12-1.59.29-.3,1.27-1.76,1.61-1.76h5.04v3.05c0,.09-.51,1.69-.59,1.74-.06.04-.49.04-.55.02Z"/>
  <path class="st0" d="M338.77,136.65c-1.07.45-5.5.95-6.23.14-.29-.32-.31-2.48-.19-2.97.23-.97,2.21-2.98,3.38-2.91,0,.31-.02.63.09.93.17.48,1.14,2.07,1.52,2.41.23.21,1.54.88,1.64,1.04.29.43.33,1.13-.21,1.36Z"/>
  <path class="st0" d="M335.54,129.43c-.17.17-.99.16-.74-.62.28-.85,1.08.29.74.62Z"/>
</svg>